<svg id="Layer_1" data-name="Layer 1" xmlns="http://www.w3.org/2000/svg" viewBox="0 0 114.45 18.67"><defs><style>.cls-1{isolation:isolate;}.cls-2{fill:#fff;}</style></defs><title>logo_txt</title><g class="cls-1"><g class="cls-1"><path class="cls-2" d="M14.42,23.49h-1.7V11L9.38,19.49h-1L5,11V23.49H3.45V8.95H5.77L9,17l3.08-8.1h2.36V23.49Z" transform="translate(-3.45 -8.95)"/><path class="cls-2" d="M21.05,23.74a4.45,4.45,0,0,1-3.56-1.47,6.2,6.2,0,0,1-1.27-4.17,6.72,6.72,0,0,1,1.23-4.24,3.88,3.88,0,0,1,3.21-1.58,4,4,0,0,1,1.58.29,3.15,3.15,0,0,1,1.2.92A4.37,4.37,0,0,1,24.24,15a7.67,7.67,0,0,1,.27,2.21v1H17.86a4.42,4.42,0,0,0,.84,2.91,2.87,2.87,0,0,0,2.33,1,4,4,0,0,0,1-.14A4.6,4.6,0,0,0,23,21.65a6.54,6.54,0,0,0,.74-0.43,4.51,4.51,0,0,0,.5-0.4h0.09v2l-0.7.32a7.37,7.37,0,0,1-.76.3c-0.32.1-.6,0.17-0.85,0.22A4.91,4.91,0,0,1,21.05,23.74Zm1.89-6.92a5.79,5.79,0,0,0-.15-1.28,2.8,2.8,0,0,0-.4-0.91A1.85,1.85,0,0,0,21.67,14a2.87,2.87,0,0,0-2.19,0,2.63,2.63,0,0,0-.82.64,3.12,3.12,0,0,0-.55,1,4.57,4.57,0,0,0-.24,1.22h5.08Z" transform="translate(-3.45 -8.95)"/><path class="cls-2" d="M28.74,23.75a5.42,5.42,0,0,1-1.8-.29,7.55,7.55,0,0,1-1.39-.62V20.78h0.09l0.49,0.41a4.57,4.57,0,0,0,.74.47,6.45,6.45,0,0,0,.91.38,3.18,3.18,0,0,0,1,.17,3.63,3.63,0,0,0,.83-0.1,1.86,1.86,0,0,0,.65-0.26,1.46,1.46,0,0,0,.43-0.48,1.7,1.7,0,0,0,.13-0.76,1.39,1.39,0,0,0-.31-1,2.47,2.47,0,0,0-1.11-.56l-0.81-.21q-0.5-.12-0.92-0.25a2.91,2.91,0,0,1-1.6-1.12,3.25,3.25,0,0,1-.5-1.83,3.16,3.16,0,0,1,1-2.4,3.63,3.63,0,0,1,2.6-.93,6,6,0,0,1,1.61.22,5.23,5.23,0,0,1,1.36.57v2H32.06a4.91,4.91,0,0,0-1.38-.88,3.9,3.9,0,0,0-1.53-.32,2.31,2.31,0,0,0-1.35.38,1.31,1.31,0,0,0-.55,1.15,1.41,1.41,0,0,0,.33,1,2.4,2.4,0,0,0,1,.55l0.8,0.21,0.93,0.24a3,3,0,0,1,1.6,1,3.08,3.08,0,0,1,.54,1.91,3.64,3.64,0,0,1-.25,1.33,2.93,2.93,0,0,1-.72,1.08,3.57,3.57,0,0,1-1.16.74A4.49,4.49,0,0,1,28.74,23.75Z" transform="translate(-3.45 -8.95)"/><path class="cls-2" d="M36.6,23.75a5.42,5.42,0,0,1-1.8-.29,7.55,7.55,0,0,1-1.39-.62V20.78H33.5L34,21.19a4.57,4.57,0,0,0,.74.47,6.45,6.45,0,0,0,.91.38,3.18,3.18,0,0,0,1,.17,3.63,3.63,0,0,0,.83-0.1,1.86,1.86,0,0,0,.65-0.26,1.47,1.47,0,0,0,.43-0.48,1.71,1.71,0,0,0,.13-0.76,1.39,1.39,0,0,0-.31-1,2.47,2.47,0,0,0-1.11-.56l-0.81-.21q-0.5-.12-0.92-0.25A2.91,2.91,0,0,1,34,17.48a3.25,3.25,0,0,1-.5-1.83,3.16,3.16,0,0,1,1-2.4,3.63,3.63,0,0,1,2.6-.93,6,6,0,0,1,1.61.22,5.2,5.2,0,0,1,1.36.57v2H39.92a4.9,4.9,0,0,0-1.38-.88A3.9,3.9,0,0,0,37,13.87a2.31,2.31,0,0,0-1.35.38,1.31,1.31,0,0,0-.55,1.15,1.41,1.41,0,0,0,.33,1,2.4,2.4,0,0,0,1,.55l0.8,0.21,0.93,0.24a3,3,0,0,1,1.6,1,3.09,3.09,0,0,1,.54,1.91,3.63,3.63,0,0,1-.25,1.33,2.92,2.92,0,0,1-.72,1.08,3.58,3.58,0,0,1-1.16.74A4.49,4.49,0,0,1,36.6,23.75Z" transform="translate(-3.45 -8.95)"/></g><g class="cls-1"><path class="cls-2" d="M55.09,23.49h-3.2V13.85l-2.33,6.22H47.37L45,13.85v9.64H42V8.95h3.71l2.84,7.18,2.83-7.18h3.71V23.49Z" transform="translate(-3.45 -8.95)"/><path class="cls-2" d="M62.88,22.33l-0.55.53a3.36,3.36,0,0,1-.66.47,4.06,4.06,0,0,1-.79.34,3.82,3.82,0,0,1-1.07.12,2.7,2.7,0,0,1-2.13-1,3.62,3.62,0,0,1-.85-2.46,4,4,0,0,1,.43-2,3.09,3.09,0,0,1,1.24-1.19,5.9,5.9,0,0,1,2-.62q1.13-.18,2.44-0.27V16.22A1.33,1.33,0,0,0,62.31,15a3.56,3.56,0,0,0-1.77-.35,4.31,4.31,0,0,0-1.25.22,8.88,8.88,0,0,0-1.39.56H57.65V12.76a13.89,13.89,0,0,1,1.44-.35,10.2,10.2,0,0,1,2-.2,5.67,5.67,0,0,1,3.63.94A3.52,3.52,0,0,1,65.87,16v7.46h-3V22.33Zm0-1.7V18.34l-1.24.15a3.79,3.79,0,0,0-.93.25,1.31,1.31,0,0,0-.62.47,1.46,1.46,0,0,0-.22.84,1.29,1.29,0,0,0,.37,1.06,1.71,1.71,0,0,0,1.08.29,1.81,1.81,0,0,0,.81-0.21A2.51,2.51,0,0,0,62.88,20.63Z" transform="translate(-3.45 -8.95)"/><path class="cls-2" d="M77.14,23.49h-3V18.05q0-.66,0-1.32a3.35,3.35,0,0,0-.18-1,1,1,0,0,0-.45-0.53,1.62,1.62,0,0,0-.78-0.16,2,2,0,0,0-.75.16,3.45,3.45,0,0,0-.81.5v7.77h-3v-11h3v1.21a7.44,7.44,0,0,1,1.44-1.11,3.07,3.07,0,0,1,1.55-.4,2.64,2.64,0,0,1,2.26,1.06,5.12,5.12,0,0,1,.78,3.07v7.14Z" transform="translate(-3.45 -8.95)"/><path class="cls-2" d="M84.68,22.33l-0.55.53a3.36,3.36,0,0,1-.66.47,4.06,4.06,0,0,1-.79.34,3.82,3.82,0,0,1-1.07.12,2.7,2.7,0,0,1-2.13-1,3.62,3.62,0,0,1-.85-2.46,4,4,0,0,1,.43-2,3.09,3.09,0,0,1,1.24-1.19,5.9,5.9,0,0,1,2-.62q1.13-.18,2.44-0.27V16.22A1.33,1.33,0,0,0,84.11,15a3.56,3.56,0,0,0-1.77-.35,4.31,4.31,0,0,0-1.25.22,8.88,8.88,0,0,0-1.39.56H79.45V12.76a13.89,13.89,0,0,1,1.44-.35,10.2,10.2,0,0,1,2-.2,5.67,5.67,0,0,1,3.63.94A3.52,3.52,0,0,1,87.67,16v7.46h-3V22.33Zm0-1.7V18.34l-1.24.15a3.79,3.79,0,0,0-.93.25,1.31,1.31,0,0,0-.62.47,1.46,1.46,0,0,0-.22.84A1.29,1.29,0,0,0,82,21.12a1.71,1.71,0,0,0,1.08.29,1.81,1.81,0,0,0,.81-0.21A2.51,2.51,0,0,0,84.68,20.63Z" transform="translate(-3.45 -8.95)"/><path class="cls-2" d="M98.67,22.23a7.61,7.61,0,0,1-.39,2.59,3.8,3.8,0,0,1-2.66,2.53,7.54,7.54,0,0,1-2.08.27,11.23,11.23,0,0,1-1.83-.14,13,13,0,0,1-1.5-.33V24.41h0.35l0.53,0.21,0.61,0.21C92,24.91,92.2,25,92.43,25a3.83,3.83,0,0,0,.72.07,3.88,3.88,0,0,0,1.28-.18,1.63,1.63,0,0,0,.77-0.51,2.07,2.07,0,0,0,.36-0.81,5.54,5.54,0,0,0,.1-1.17V22.21a4.05,4.05,0,0,1-1.17.82,3.24,3.24,0,0,1-1.37.31,3.38,3.38,0,0,1-2.89-1.39,7.13,7.13,0,0,1-1-4.22,7.87,7.87,0,0,1,.31-2.31,5.42,5.42,0,0,1,.87-1.75,3.67,3.67,0,0,1,1.29-1.07,3.5,3.5,0,0,1,1.57-.38,3.82,3.82,0,0,1,1.32.21,4.16,4.16,0,0,1,1.07.58l0.11-.49h2.91v9.71Zm-3-2.2v-5a2.41,2.41,0,0,0-.55-0.2,2.79,2.79,0,0,0-.65-0.08,1.84,1.84,0,0,0-1.63.8,3.89,3.89,0,0,0-.55,2.22A7.51,7.51,0,0,0,92.37,19a2.54,2.54,0,0,0,.3.87,1.45,1.45,0,0,0,.56.56,1.84,1.84,0,0,0,.89.19,2.14,2.14,0,0,0,.79-0.16A2.77,2.77,0,0,0,95.66,20Z" transform="translate(-3.45 -8.95)"/><path class="cls-2" d="M105.92,23.78a5.6,5.6,0,0,1-4.19-1.48,5.79,5.79,0,0,1-1.46-4.23,6.41,6.41,0,0,1,1.36-4.29,4.71,4.71,0,0,1,3.8-1.6,4.07,4.07,0,0,1,3.33,1.36,6,6,0,0,1,1.12,3.89v1.23h-6.59a3.44,3.44,0,0,0,.28,1.27,2.15,2.15,0,0,0,.63.82,2.42,2.42,0,0,0,.9.43,4.54,4.54,0,0,0,1.13.13,4.09,4.09,0,0,0,1-.13,4.61,4.61,0,0,0,.93-0.35,6,6,0,0,0,.68-0.4,6.37,6.37,0,0,0,.51-0.38h0.32v2.82l-0.67.31a5.52,5.52,0,0,1-.84.29,7.9,7.9,0,0,1-1,.23A8.18,8.18,0,0,1,105.92,23.78Zm1-7.19a2.88,2.88,0,0,0-.44-1.65,1.48,1.48,0,0,0-1.28-.57,1.68,1.68,0,0,0-1.37.6,2.69,2.69,0,0,0-.55,1.62h3.63Z" transform="translate(-3.45 -8.95)"/><path class="cls-2" d="M117.91,15.76h-0.25a2,2,0,0,0-.5-0.1,6.94,6.94,0,0,0-.72,0,3.46,3.46,0,0,0-1,.16,8.83,8.83,0,0,0-1,.37v7.34h-3v-11h3V14.1q0.21-.21.57-0.54a5.42,5.42,0,0,1,.67-0.52,3.44,3.44,0,0,1,.76-0.39,2.36,2.36,0,0,1,.82-0.16h0.33l0.33,0v3.23Z" transform="translate(-3.45 -8.95)"/></g></g></svg>